<svg xml:space="preserve" style="enable-background:new 0 0 1200 1200;" viewBox="0 0 1200 1200" y="0px" x="0px" xmlns:xlink="http://www.w3.org/1999/xlink" xmlns="http://www.w3.org/2000/svg" version="1.1">
<style type="text/css">
	.st0{fill:none;stroke:#000000;stroke-width:10;stroke-linecap:round;stroke-linejoin:round;stroke-miterlimit:10;}
	.st1{fill:#8E40EC;}
	.st2{fill:#020202;stroke:#000000;stroke-width:10;stroke-linecap:round;stroke-linejoin:round;stroke-miterlimit:10;}
	.st3{fill:#AE6BF9;}
	.st4{fill:#FFFFFF;}
	.st5{fill:#020202;}
	.st6{fill:#D12F2F;}
	.st7{fill:none;stroke:#8E40EC;stroke-width:10;stroke-linecap:round;stroke-linejoin:round;stroke-miterlimit:10;}
	.st8{opacity:0.6;fill:#15F937;}
	.st9{fill:none;stroke:#15F937;stroke-width:10;stroke-miterlimit:10;}
	.st10{opacity:0.66;clip-path:url(#SVGID_2_);}
	.st11{opacity:0.66;clip-path:url(#SVGID_4_);}
	.st12{fill:none;stroke:#FFFFFF;stroke-width:10;stroke-linecap:round;stroke-linejoin:round;stroke-miterlimit:10;}
	.st13{fill:#020202;stroke:#000000;stroke-linecap:round;stroke-linejoin:round;stroke-miterlimit:10;}
	.st14{fill:none;stroke:#000000;stroke-width:6;stroke-linecap:round;stroke-linejoin:round;stroke-miterlimit:10;}
	.st15{fill:none;stroke:#E2BB3D;stroke-width:10;stroke-linecap:round;stroke-linejoin:round;stroke-miterlimit:10;}
	.st16{fill:none;stroke:#682CB1;stroke-width:10;stroke-miterlimit:10;}
	.st17{fill:#AB2CB5;}
	.st18{fill:#D3A746;}
	.st19{fill:#3ABFBF;}
	.st20{fill:#593C1F;}
	.st21{fill:#D38537;}
	.st22{fill:#C65730;}
	.st23{fill:#35210D;}
	.st24{fill:#3A0B5B;}
	.st25{fill:#8E40EC;stroke:#000000;stroke-width:10;stroke-linecap:round;stroke-linejoin:round;stroke-miterlimit:10;}
	.st26{fill:#B52626;stroke:#000000;stroke-width:10;stroke-linecap:round;stroke-linejoin:round;stroke-miterlimit:10;}
	.st27{fill:#C32FD3;}
	.st28{fill:#EFC243;stroke:#000000;stroke-width:10;stroke-linecap:round;stroke-linejoin:round;stroke-miterlimit:10;}
	.st29{fill:#E2623B;}
	.st30{fill:#442910;}
	.st31{fill:#8A40F4;stroke:#000000;stroke-width:10;stroke-miterlimit:10;}
	.st32{fill:#6F38F9;stroke:#000000;stroke-width:10;stroke-miterlimit:10;}
	.st33{fill:#8D5FFF;}
	.st34{fill:none;stroke:#3ABFBF;stroke-width:12.1666;stroke-miterlimit:10;}
	.st35{fill:#C53DD8;}
	.st36{clip-path:url(#SVGID_6_);}
	.st37{fill:#6F38F9;}
	.st38{fill:none;stroke:#000000;stroke-width:9.9938;stroke-linecap:round;stroke-linejoin:round;stroke-miterlimit:10;}
	.st39{fill:#EAEAEA;}
	.st40{fill:#42D3CF;}
	.st41{fill:#020202;stroke:#000000;stroke-width:9.9938;stroke-linecap:round;stroke-linejoin:round;stroke-miterlimit:10;}
	.st42{fill:none;stroke:#FFFFFF;stroke-width:9.9938;stroke-linecap:round;stroke-linejoin:round;stroke-miterlimit:10;}
	.st43{fill:#EFC243;stroke:#000000;stroke-width:9.9938;stroke-linecap:round;stroke-linejoin:round;stroke-miterlimit:10;}
	.st44{fill:#3ABFBF;stroke:#000000;stroke-width:9.9938;stroke-linecap:round;stroke-linejoin:round;stroke-miterlimit:10;}
	.st45{fill:none;stroke:#000000;stroke-width:5.9963;stroke-linecap:round;stroke-linejoin:round;stroke-miterlimit:10;}
	.st46{fill:none;stroke:#15F937;stroke-width:9.9938;stroke-miterlimit:10;}
	.st47{opacity:0.66;clip-path:url(#SVGID_8_);}
	.st48{opacity:0.66;clip-path:url(#SVGID_10_);}
	.st49{fill:#3EC8D6;}
	.st50{fill:#54E2E2;}
	.st51{clip-path:url(#SVGID_12_);}
	.st52{fill:#EFC243;}
	.st53{fill:#C32FD3;stroke:#000000;stroke-width:10;stroke-linecap:round;stroke-linejoin:round;stroke-miterlimit:10;}
	.st54{fill:#D3A746;stroke:#000000;stroke-width:10;stroke-linecap:round;stroke-linejoin:round;stroke-miterlimit:10;}
	.st55{fill:#B52626;}
	.st56{opacity:0.66;clip-path:url(#SVGID_14_);}
	.st57{opacity:0.66;clip-path:url(#SVGID_16_);}
	.st58{clip-path:url(#SVGID_18_);}
	.st59{fill:none;stroke:#000000;stroke-width:10.1063;stroke-linecap:round;stroke-linejoin:round;stroke-miterlimit:10;}
	.st60{fill:#EF6130;}
	.st61{fill:#020202;stroke:#000000;stroke-width:10.1063;stroke-linecap:round;stroke-linejoin:round;stroke-miterlimit:10;}
	.st62{fill:#FFFFFF;stroke:#FFFFFF;stroke-width:10;stroke-linecap:round;stroke-linejoin:round;stroke-miterlimit:10;}
	.st63{opacity:0.66;clip-path:url(#SVGID_20_);}
	.st64{opacity:0.66;clip-path:url(#SVGID_22_);}
	.st65{fill:#E28430;}
	.st66{clip-path:url(#SVGID_24_);}
	.st67{fill:#FFFFFF;stroke:#000000;stroke-width:10;stroke-linecap:round;stroke-linejoin:round;stroke-miterlimit:10;}
	.st68{fill:#4FDB6D;}
	.st69{fill:#219B38;}
	.st70{fill:none;stroke:#000000;stroke-width:10;stroke-linecap:round;stroke-linejoin:round;}
	.st71{fill:none;stroke:#FFFFFF;stroke-width:10;stroke-miterlimit:10;}
	.st72{fill:#D8D850;}
	.st73{opacity:0.66;clip-path:url(#SVGID_26_);}
	.st74{opacity:0.66;clip-path:url(#SVGID_28_);}
	.st75{fill:#61E26E;}
	.st76{clip-path:url(#SVGID_30_);}
	.st77{fill:#F2E9D1;}
	.st78{fill:#F2E9D1;stroke:#000000;stroke-width:10;stroke-linecap:round;stroke-linejoin:round;stroke-miterlimit:10;}
	.st79{opacity:0.66;clip-path:url(#SVGID_32_);}
	.st80{opacity:0.66;clip-path:url(#SVGID_34_);}
	.st81{fill:#48296D;}
	.st82{clip-path:url(#SVGID_36_);}
	.st83{fill:#F462AB;}
	.st84{fill:#F462AB;stroke:#000000;stroke-width:10;stroke-linecap:round;stroke-linejoin:round;stroke-miterlimit:10;}
	.st85{opacity:0.66;clip-path:url(#SVGID_38_);}
	.st86{opacity:0.66;clip-path:url(#SVGID_40_);}
	.st87{clip-path:url(#SVGID_42_);}
	.st88{fill:#E2BB3D;}
	.st89{opacity:0.66;clip-path:url(#SVGID_44_);}
	.st90{opacity:0.66;clip-path:url(#SVGID_46_);}
	.st91{clip-path:url(#SVGID_48_);}
	.st92{opacity:0.66;clip-path:url(#SVGID_50_);}
	.st93{opacity:0.66;clip-path:url(#SVGID_52_);}
	.st94{fill:#E3DFE8;}
	.st95{fill:#40205B;}
	.st96{clip-path:url(#SVGID_54_);}
	.st97{opacity:0.66;clip-path:url(#SVGID_56_);}
	.st98{opacity:0.66;clip-path:url(#SVGID_58_);}
	.st99{clip-path:url(#SVGID_60_);}
	.st100{fill:none;}
	.st101{opacity:0.66;clip-path:url(#SVGID_62_);}
	.st102{opacity:0.66;clip-path:url(#SVGID_64_);}
	.st103{clip-path:url(#SVGID_66_);}
	.st104{opacity:0.66;clip-path:url(#SVGID_68_);}
	.st105{opacity:0.66;clip-path:url(#SVGID_70_);}
	.st106{clip-path:url(#SVGID_72_);}
	.st107{fill:#E8842A;}
	.st108{opacity:0.66;clip-path:url(#SVGID_74_);}
	.st109{opacity:0.66;clip-path:url(#SVGID_76_);}
</style>
<g id="图层_1">
</g>
<g id="图层_13">
</g>
<g id="图层_9">
</g>
<g id="图层_10">
</g>
<g id="图层_11">
	<g>
		<rect height="1200" width="1200" class="st65" y="-1.5"></rect>
		<g>
			<defs>
				<rect height="1200" width="1200" y="-1.5" id="SVGID_23_"></rect>
			</defs>
			<clipPath id="SVGID_2_">
				<use style="overflow:visible;" xlink:href="#SVGID_23_"></use>
			</clipPath>
			<g style="clip-path:url(#SVGID_2_);">
				<g>
					<g id="XMLID_45_">
						<g>
							<path d="M875,1202l-1.9,1h-481v-0.5H231.5l-0.5-0.5c-25-236,118-350,118-350l254.6-23l240.9,46.1
								c0,0,123.9,82.8,117.4,326.9v0.5h-86.5L875,1202z" class="st37"></path>
						</g>
						<g>
							<path d="M231,1202c-25-236,118-350,118-350l254.6-23l240.9,46.1c0,0,123.9,82.8,117.4,326.9" class="st0"></path>
							<path d="M836,1018c0,0,42,74,39,184" class="st0"></path>
							<path d="M437,1018c0,0-46,52-43,184" class="st0"></path>
						</g>
					</g>
				</g>
				<path d="M472,875.1c0,0,63.4,52.2,160.6,49.4c97.2-2.8,133.5-45.8,133.5-45.8l76.5-8.6l17.4,79.5l-200,73.1
					l-193-34l-51.6-109.7L472,875.1z" class="st67"></path>
				<g id="XMLID_44_">
					<g>
						<path d="M844.6,863.6c0,0,146.5,94.9,123.9,344.9l-744.4,5.5c-42.4-229.2,130.8-376,130.8-376l64.2,17.2
							c0,0,13.2,138.4,215.8,140.7C810.8,997.8,844.6,863.6,844.6,863.6z" class="st68"></path>
						<path d="M800,870.1l44.6-6.5c0,0-33.8,134.2-209.6,132.3c-202.6-2.2-215.8-140.7-215.8-140.7l38.1,10.2
							c0,0,28,85.9,177.5,89.7C750.1,958.1,800,870.1,800,870.1z" class="st69"></path>
					</g>
					<g>
						<path d="M968.5,1208.5C991,958.5,844.6,863.6,844.6,863.6l-44.6,6.5c0,0-49.9,88-165.2,85
							c-149.5-3.8-177.5-89.7-177.5-89.7l-38.1-10.2L354.9,838c0,0-173.2,146.8-130.8,376" class="st0"></path>
						<path d="M836,1018c0,0,41.7,75.8,39.5,184.5" class="st70"></path>
						<path d="M437,1018c0,0-46.1,46.6-44.9,185" class="st70"></path>
					</g>
				</g>
				<g id="XMLID_19_">
					<g>
						<path d="M911.2,402.7c23,26.3,40.1,67.4,44.5,114.1c3.4,35.4-6.3,112.2,7,145.2c25.4,62.4,0.8,154.8-69.8,191.1
							c-76,39-170,51-281,51c-115.9,0-239.9-16.8-313-95c-58-62-73.8-183.8-59-257c13.3-65.9,35.3-115.8,68.3-152.8L307,398
							c-77,10-157-53-148-76c27.2-69.6,256-43,256-43l0.1,0.4C469,260.9,535.3,250,607,250c64.8,0,125.1,8.9,175.9,24.2l0.1-0.2
							c0,0,224.8-14.1,258,48c8,15-39.9,64.8-129,80L911.2,402.7z" class="st37"></path>
					</g>
					<g>
						<path d="M403.4,283.6c3.8-1.4,7.8-2.9,11.7-4.2C469,260.9,535.3,250,607,250c64.8,0,125.1,8.9,175.9,24.2
							c11.2,3.4,21.9,7.1,32.1,11" class="st0"></path>
						<path d="M897,389c4.9,3.9,9.7,8.5,14.2,13.7c23,26.3,40.1,67.4,44.5,114.1c3.4,35.4-6.3,112.2,7,145.2
							c25.4,62.4,0.8,154.8-69.8,191.1c-76,39-170,51-281,51c-115.9,0-239.9-16.8-313-95c-58-62-73.8-183.8-59-257
							c13.3-65.9,35.3-115.8,68.3-152.8c9.1-10.1,19-19.3,29.7-27.6" class="st0"></path>
						<path d="M415,279c0,0-228.8-26.6-256,43c-9,23,71,86,148,76" class="st0"></path>
						<path d="M783,274c0,0,224.8-14.1,258,48c8,15-39.9,64.8-129,80" class="st0"></path>
					</g>
				</g>
				<g>
					<path d="M332,644c0,0,126,45,312,43s279-40,279-40s-13,121,6,149c0,0-77,77-300,74s-295.5-66-304.7-75.5
						C324.3,794.5,343,740,332,644z" class="st2"></path>
					<path d="M955.9,620.5c0,0-7.9,17.5-32.9,26.5" class="st0"></path>
					<path d="M968.4,686c0,0,3.6,64-39.4,110" class="st0"></path>
					<path d="M235,593c0,0,68,45,97,51" class="st0"></path>
					<path d="M324,794c0,0-65.3-42.8-88.3-157.8" class="st0"></path>
				</g>
				<g>
					<g>
						<g id="XMLID_18_">
							<g>
								<path d="M760,486c55.2,0,100,44.8,100,100c-112-41-200,0-200,0C660,530.8,704.8,486,760,486z" class="st3"></path>
								<path d="M860,586c0,55.2-44.8,100-100,100s-100-44.8-100-100C660,586,748,545,860,586z" class="st4"></path>
								<path d="M530,486c55.2,0,100,44.8,100,100c-112-41-200,0-200,0C430,530.8,474.8,486,530,486z" class="st3"></path>
								<path d="M630,586c0,55.2-44.8,100-100,100s-100-44.8-100-100C430,586,518,545,630,586z" class="st4"></path>
							</g>
							<g>
								<circle r="100" cy="586" cx="530" class="st0"></circle>
								<path d="M430,586c0,0,88-41,200,0" class="st0"></path>
								<circle r="100" cy="586" cx="760" class="st0"></circle>
								<path d="M660,586c0,0,88-41,200,0" class="st0"></path>
							</g>
						</g>
					</g>
					<g>
						<path d="M845.9,578.1L805,571l-51-0.2c-3.2,6.5-5,13.9-5,21.7c0,27.3,22.2,49.5,49.5,49.5s49.5-22.2,49.5-49.5
							C848,587.5,847.2,582.6,845.9,578.1z" class="st5"></path>
						<path d="M569.5,570.8c0,0-28.3,0.1-44.5,0.1c-3.2,6.5-5,13.9-5,21.6c0,27.3,22.2,49.5,49.5,49.5
							s49.5-22.2,49.5-49.5c0-2.9-0.3-5.7-0.7-8.4L569.5,570.8z" class="st5"></path>
					</g>
				</g>
				<g id="XMLID_20_">
					<g>
						<path d="M668.8,790.1c1.1,16.7,11.8,25.4,11.1,35.5c-0.8,11.7-9.3,20.9-28.6,20.9c-17.9,0-36.9-15.3-40.6-50.4
							c3-2.8,16.4-14.3,30.8-15.4C659.1,779.5,668.8,790.1,668.8,790.1z" class="st6"></path>
					</g>
					<g>
						<path d="M668.8,790.1c-0.2-2.6-0.1-5.3,0.2-8.2c2.6-21.9,14.8-29.2,16.6-44.2c1.5-12.9-5.2-21.1-19.1-22.6
							c-25-2.6-56.5,21-56.5,68.4c0,4.5,0.2,8.7,0.6,12.7c3.7,35.1,22.7,50.4,40.6,50.4c19.3,0,27.8-9.2,28.6-20.9
							C680.6,815.5,669.9,806.8,668.8,790.1z" class="st71"></path>
						<path d="M610,796.8c0,0,0.2-0.2,0.6-0.6c3-2.8,16.4-14.3,30.8-15.4c17.7-1.3,27.3,9.2,27.3,9.2" class="st71"></path>
					</g>
				</g>
				<g>
					<polygon points="428,450.2 450.2,480.9 497.1,443.5 483.2,428.9"></polygon>
					<polygon points="812,432.9 798,447.5 844.9,484.9 867.1,454.2"></polygon>
				</g>
				<g>
					<g>
						<path d="M963.1,495.5c-1.2,0-2.4-0.4-3.3-1.2c-0.4-0.4-23.9-20.4-74.7-40.9c-47.1-19.1-128-42.6-245.9-46.1
							c-9.4-0.3-18.8-0.4-28.2-0.4c-111.2,0-203.4,19.9-261.2,36.6c-62.6,18.1-99.4,36.4-99.8,36.6c-0.7,0.4-1.5,0.5-2.2,0.5
							c-1.1,0-2.2-0.4-3.2-1.1c-1.5-1.2-2.2-3.3-1.7-5.2c0.6-2.4,16.2-59.7,55.9-100.6c2.1-2.5,22.4-26.1,68.6-49.7
							c43.7-22.4,120.1-49.2,235.5-49.2c10.2,0,20.6,0.2,31.1,0.6c52.5,2.1,101.2,9.6,144.9,22.4c35.1,10.3,67,23.9,94.9,40.6
							c47.8,28.6,67,55.9,67.8,57.1c0.2,0.3,0.3,0.5,0.5,0.8c1,2.2,24.6,55.3,25.9,94.1c0.1,2-1.1,3.8-2.8,4.7
							C964.5,495.4,963.8,495.5,963.1,495.5z" class="st68"></path>
						<path d="M603,279.8c10,0,20.3,0.2,30.9,0.6c228.2,8.9,303.7,117.9,303.7,117.9s24.2,54,25.5,92.2c0,0-93.3-81.4-323.7-88.2
							c-9.6-0.3-19-0.4-28.3-0.4c-216.7,0-363.2,73.7-363.2,73.7s15.4-58.1,54.8-98.6C302.7,377,381.6,279.8,603,279.8 M603,269.8
							v10V269.8c-51.3,0-99.3,5.2-142.7,15.5c-34.9,8.3-66.9,19.8-95.1,34.3c-46,23.6-67.1,47.4-70,50.8
							c-40.5,41.9-56.4,100.2-57,102.7c-1,3.8,0.3,7.8,3.4,10.3c1.8,1.5,4.1,2.2,6.3,2.2c1.5,0,3.1-0.4,4.5-1.1
							c0.4-0.2,36.9-18.4,99.2-36.3c36.5-10.5,74.6-18.9,113.3-25c48.2-7.5,97.4-11.3,146.2-11.3c9.4,0,18.8,0.1,28.1,0.4
							c51.6,1.5,100.4,7,145,16.3c35.7,7.4,68.8,17.2,98.5,29.2c50.5,20.4,73.7,40.1,73.9,40.3c1.9,1.6,4.2,2.4,6.6,2.4
							c1.5,0,2.9-0.3,4.3-1c3.6-1.7,5.8-5.4,5.7-9.4c-1.4-39.8-25.3-93.7-26.3-96c-0.3-0.6-0.6-1.1-0.9-1.6
							c-0.8-1.2-20.7-29.4-69.3-58.5c-28.2-16.9-60.6-30.7-96-41.1c-44.1-12.9-93.3-20.5-146.2-22.6
							C623.8,270,613.3,269.8,603,269.8L603,269.8z"></path>
					</g>
					<path d="M639.4,348.6c190.3,9.4,302.3,60.3,308.1,76.3c7.4,20.4,14.8,45,15.5,65.7c0,0-93.3-81.4-323.7-88.2
						c-232.1-6.9-391.5,73.3-391.5,73.3s7.4-27.8,25-58.4C280.7,403.6,451.5,339.3,639.4,348.6z" class="st72"></path>
				</g>
				<g>
					<path d="M503.8,1152.2c35.7-44.7,24.6-109.7,24.6-109.7s39,78.4,20.6,109.7c0,0,26.4-54.5,25.7-109.7" class="st70"></path>
					<path d="M609.3,1042.6c0,0,4.5,70.1-20.7,114.7" class="st70"></path>
					<path d="M683.1,1059.9c0,0-2.8-22.4-24.8-20.9s-24.9,41.8-28.3,67.3c-3.4,25.6,3.4,51.7,21.8,52.2
						c18.4,0.5,26.4-20.4,26.4-20.4" class="st70"></path>
					<path d="M745.3,1045.5l-43.4-2.9c0,0,12.7,76.2-6.9,111.7h45" class="st70"></path>
					<line y2="1097.4" x2="705.9" y1="1097.4" x1="743.1" class="st70"></line>
				</g>
				<g id="XMLID_91_">
					<g>
						<path d="M626.8,328.7l0.5,0.1c-3.1,4.6-4.7,13.5-2.9,18.7l-0.8,0.1c0,0-2.7,4-7.1,1.9c-2.6-1.2-3.7-4.7-3.8-8.7
							c-0.1-6.2,2.4-13.6,5.6-15.9C623.7,321.1,626.8,328.7,626.8,328.7z" class="st68"></path>
						<path d="M637.7,329.5l0.5,0.4c-3.5,4.5-5.1,13.7-3.4,19.3l-0.2,0.1c0,0-2.7,4-7.1,1.9c-1.4-0.7-2.4-2-3-3.7
							c-1.8-5.3-0.2-14.2,2.9-18.7c0.6-0.9,1.3-1.7,2-2.2C634.6,322.8,637.7,329.5,637.7,329.5z" class="st68"></path>
						<path d="M634.7,349.2c-1.7-5.6-0.1-14.8,3.4-19.3c1.2-1.6,2.7-2.6,4.4-2.6c7.3,0,7.9,13.7,7.9,13.7
							s8.8-16,13.9-13.6c5.2,2.5,0.1,14.8-5.7,25.6c-5.8,10.7-10.6,20.4-29.6,18.1c-17.5-2.1-20.8-15.8-20.8-15.8
							c-6.6-5.1-14.6-17.9-9.2-21.2c5.4-3.3,13.4,6.8,13.4,6.8l0.4,0c0.1,4,1.1,7.4,3.8,8.7c4.4,2.1,7.1-1.9,7.1-1.9l0.8-0.1
							c0.6,1.7,1.6,3,3,3.7c4.4,2.1,7.1-1.9,7.1-1.9L634.7,349.2z" class="st68"></path>
					</g>
					<g>
						<path d="M637.7,329.5c0,0-3.1-6.7-8.4-2.9c-0.7,0.5-1.4,1.2-2,2.2c-3.1,4.6-4.7,13.5-2.9,18.7
							c0.6,1.7,1.6,3,3,3.7c4.4,2.1,7.1-1.9,7.1-1.9" class="st14"></path>
						<path d="M626.8,328.7c0,0-3.1-7.6-8.4-3.7c-3.3,2.3-5.7,9.8-5.6,15.9c0.1,4,1.1,7.4,3.8,8.7
							c4.4,2.1,7.1-1.9,7.1-1.9" class="st14"></path>
						<path d="M612.4,340.9c0,0-8-10.1-13.4-6.8c-5.4,3.3,2.6,16.1,9.2,21.2c0,0,3.3,13.7,20.8,15.8
							c19,2.3,23.7-7.3,29.6-18.1c5.8-10.7,10.9-23.1,5.7-25.6c-5.1-2.4-13.9,13.6-13.9,13.6s-0.6-13.7-7.9-13.7
							c-1.7,0-3.2,1-4.4,2.6c-3.5,4.5-5.1,13.7-3.4,19.3c0.3,1.1,0.8,2.1,1.4,2.8c4.1,5.1,9-0.2,9.3-8" class="st14"></path>
					</g>
				</g>
				<g>
					<g>
						<path d="M650.8,599.7c0.1-5.7,4.6-10.5,10.3-10.8l292.7-16.3c12.3-0.7,21.7,10.6,18.9,22.6
							C963.5,634,903.2,709.6,764,701C660,694.6,650.6,626.1,650.8,599.7z" class="st8"></path>
						<path d="M650.8,599.7c0.1-5.7,4.6-10.5,10.3-10.8l292.7-16.3c12.3-0.7,21.7,10.6,18.9,22.6
							C963.5,634,903.2,709.6,764,701C660,694.6,650.6,626.1,650.8,599.7z" class="st9"></path>
						<g>
							<defs>
								<path d="M650.8,599.7c0.1-5.7,4.6-10.5,10.3-10.8l292.7-16.3c12.3-0.7,21.7,10.6,18.9,22.6
									C963.5,634,903.2,709.6,764,701C660,694.6,650.6,626.1,650.8,599.7z" id="SVGID_25_"></path>
							</defs>
							<clipPath id="SVGID_4_">
								<use style="overflow:visible;" xlink:href="#SVGID_25_"></use>
							</clipPath>
							<g class="st11">
								<polygon points="746,556 596,702 637,702 787,556" class="st4"></polygon>
								<polygon points="798,556 648,702 666,702 816,556" class="st4"></polygon>
							</g>
						</g>
					</g>
					<g>
						<path d="M633.2,599.7c-0.1-5.7-4.6-10.5-10.3-10.8l-292.7-16.3c-12.3-0.7-21.7,10.6-18.9,22.6
							C320.5,634,380.8,709.6,520,701C624,694.6,633.5,626.1,633.2,599.7z" class="st8"></path>
						<path d="M633.2,599.7c-0.1-5.7-4.6-10.5-10.3-10.8l-292.7-16.3c-12.3-0.7-21.7,10.6-18.9,22.6
							C320.5,634,380.8,709.6,520,701C624,694.6,633.5,626.1,633.2,599.7z" class="st9"></path>
						<g>
							<defs>
								<path d="M633.2,599.7c-0.1-5.7-4.6-10.5-10.3-10.8l-292.7-16.3c-12.3-0.7-21.7,10.6-18.9,22.6
									C320.5,634,380.8,709.6,520,701C624,694.6,633.5,626.1,633.2,599.7z" id="SVGID_27_"></path>
							</defs>
							<clipPath id="SVGID_6_">
								<use style="overflow:visible;" xlink:href="#SVGID_27_"></use>
							</clipPath>
							<g style="opacity:0.66;clip-path:url(#SVGID_6_);">
								<polygon points="448,556 298,702 339,702 489,556" class="st4"></polygon>
								<polygon points="500,556 350,702 368,702 518,556" class="st4"></polygon>
							</g>
						</g>
					</g>
				</g>
			</g>
		</g>
	</g>
</g>
<g id="图层_12">
</g>
<g id="图层_3">
</g>
<g id="图层_4">
</g>
<g id="图层_5">
</g>
<g id="图层_6">
</g>
<g id="图层_7">
</g>
<g id="图层_8">
</g>
<g id="图层_2">
</g>
</svg>
